<?xml version="1.0" encoding="UTF-8"?>
<svg width="357px" height="200px" viewBox="0 0 357 200" version="1.1" xmlns="http://www.w3.org/2000/svg" xmlns:xlink="http://www.w3.org/1999/xlink">
    <!-- Generator: Sketch 59 (86127) - https://sketch.com -->
    <title>Kroger Logo</title>
    <desc>Created with Sketch.</desc>
    <defs>
        <path d="M357,73.498 L357,89.947 C355.072,89.541 353.027,89.339 350.862,89.339 C343.796,89.339 338.775,92.655 335.799,99.287 L335.799,131.018 L318.454,131.018 L318.454,73.751 L335.394,73.751 L335.394,83.093 C340.296,76.155 345.69,72.686 351.573,72.686 C353.704,72.686 355.511,72.957 357,73.498 Z M0,131.017 L0,54.918 L18.362,54.918 L18.362,92.968 C26.513,91.058 33.022,87.393 37.78,81.98 C43.86,75.063 46.029,66.674 46.778,60.856 C47.074,58.555 47.118,56.846 47.118,56.033 L47.146,56.033 C47.67,25.048 72.999,0 104.078,0 C135.484,0 161.034,25.574 161.034,57.01 L144.674,57.01 C144.674,34.605 126.462,16.376 104.078,16.376 C81.692,16.376 63.481,34.605 63.481,57.01 L63.465,57.01 C63.433,58.476 63.319,60.496 63.004,62.948 C61.964,71.031 58.873,82.773 50.063,92.795 C49.478,93.462 48.872,94.102 48.255,94.731 L72.479,131.017 L50.518,131.017 L33.959,104.855 C29.248,107.082 24.046,108.702 18.362,109.695 L18.362,131.017 L0,131.017 Z M96.667,83.094 C101.569,76.155 106.963,72.686 112.846,72.686 C114.977,72.686 116.784,72.957 118.274,73.499 L118.274,89.948 C116.345,89.542 114.3,89.338 112.135,89.338 C105.069,89.338 100.047,92.655 97.072,99.288 L97.072,131.017 L79.727,131.017 L79.727,73.752 L96.667,73.752 L96.667,83.094 Z M173.825,123.479 C168.228,129.183 161.28,132.032 152.979,132.032 C144.679,132.032 137.738,129.152 132.159,123.388 C126.58,117.625 123.79,110.607 123.79,102.335 C123.79,94.062 126.58,87.052 132.159,81.306 C137.738,75.56 144.679,72.685 152.979,72.685 C161.28,72.685 168.228,75.547 173.825,81.266 C179.421,86.985 182.219,94.009 182.219,102.334 C182.219,110.728 179.421,117.775 173.825,123.479 Z M143.799,112.218 C146.184,114.903 149.243,116.244 152.979,116.244 C156.715,116.244 159.783,114.893 162.185,112.192 C164.585,109.489 165.786,106.203 165.786,102.334 C165.786,98.499 164.585,95.23 162.185,92.529 C159.783,89.826 156.715,88.475 152.979,88.475 C149.243,88.475 146.184,89.826 143.799,92.529 C141.416,95.23 140.224,98.499 140.224,102.334 C140.224,106.238 141.416,109.532 143.799,112.218 Z M283.449,72.686 C291.564,72.686 298.209,75.63 303.381,81.52 C308.555,87.408 311.141,94.55 311.141,102.944 C311.141,103.282 311.124,103.697 311.09,104.187 C311.057,104.678 311.005,105.219 310.939,105.811 C310.871,106.404 310.837,106.871 310.837,107.208 L271.478,107.208 C272.797,113.842 277.193,117.158 284.666,117.158 C289.872,117.158 294.099,115.677 297.346,112.713 L309.924,119.756 C306.474,123.593 302.687,126.598 298.563,128.772 C294.438,130.946 289.466,132.033 283.652,132.033 C274.995,132.033 267.996,129.266 262.654,123.732 C257.31,118.199 254.64,111.066 254.64,102.334 C254.64,93.806 257.43,86.732 263.008,81.113 C268.587,75.496 275.401,72.686 283.449,72.686 Z M271.681,96.901 L293.796,96.901 C293.39,94.276 292.146,91.962 290.067,89.958 C287.988,87.954 285.663,86.952 283.093,86.952 C280.388,86.952 278.021,87.815 275.991,89.542 C273.964,91.271 272.526,93.724 271.681,96.901 Z M247.309,147.765 L247.328,147.765 C247.328,148.013 247.313,148.256 247.309,148.503 L247.309,149.285 L247.289,149.285 C246.481,176.869 223.828,199.064 196.077,199.064 C167.816,199.064 144.824,176.052 144.824,147.765 L161.184,147.765 C161.184,167.022 176.836,182.689 196.077,182.689 C215.316,182.689 230.969,167.022 230.969,147.765 L230.977,147.765 C230.978,142.509 230.978,125.362 230.978,125.249 C226.751,128.384 221.763,129.97 216.016,130.002 C208.948,130.002 202.658,127.29 197.148,121.865 C191.636,116.441 188.88,109.659 188.88,101.521 C188.88,93.347 191.568,86.497 196.944,80.972 C202.321,75.448 208.678,72.686 216.016,72.686 C221.966,72.686 226.886,74.666 230.774,78.627 L230.774,73.752 L247.309,73.752 L247.309,147.765 Z M227.352,111.233 C229.701,108.637 230.876,105.408 230.876,101.547 C230.876,97.687 229.692,94.459 227.326,91.862 C224.96,89.266 221.882,87.967 218.095,87.967 C214.341,87.967 211.273,89.266 208.89,91.862 C206.506,94.459 205.313,97.687 205.313,101.547 C205.313,105.408 206.506,108.637 208.89,111.233 C211.273,113.829 214.341,115.127 218.095,115.127 C221.915,115.127 225.002,113.829 227.352,111.233 Z" id="path-1"></path>
    </defs>
    <g id="Page-6" stroke="none" stroke-width="1" fill="none" fill-rule="evenodd">
        <mask id="mask-2" fill="white">
            <use xlink:href="#path-1"></use>
        </mask>
        <use id="Kroger-Logo" fill="#FFFFFF" fill-rule="nonzero" xlink:href="#path-1"></use>
    </g>
</svg>